<svg width="512" height="256" viewBox="0 0 512 256" fill="none" xmlns="http://www.w3.org/2000/svg">
  <defs>
    <linearGradient id="yakgoGradient" x1="0" y1="0" x2="1" y2="1">
      <stop offset="0%" stop-color="#0F172A" />
      <stop offset="50%" stop-color="#1D4ED8" />
      <stop offset="100%" stop-color="#38BDF8" />
    </linearGradient>
    <linearGradient id="yakgoText" x1="0" y1="0" x2="1" y2="0">
      <stop offset="0%" stop-color="#1D4ED8" />
      <stop offset="100%" stop-color="#38BDF8" />
    </linearGradient>
  </defs>
  <rect width="512" height="256" fill="none" />
  <g transform="translate(24, 48)">
    <path
      d="M52 120C30 120 12 102 12 80C12 58 30 40 52 40H96C118 40 136 58 136 80C136 102 118 120 96 120H88L72 136V120H52Z"
      fill="url(#yakgoGradient)"
    />
    <circle cx="56" cy="74" r="14" fill="#0B1120" opacity="0.5" />
    <path
      d="M90 88C108 88 122 100 122 116C122 132 108 144 90 144H68C50 144 36 132 36 116C36 104 44 94 56 90"
      fill="url(#yakgoGradient)"
      opacity="0.9"
    />
    <path
      d="M140 64C164 64 186 72 204 88L188 104C174 92 158 86 140 86C112 86 88 104 80 130L60 120C72 88 104 64 140 64Z"
      fill="#0F172A"
      opacity="0.35"
    />
  </g>
  <text x="220" y="148" font-family="Inter, Arial, sans-serif" font-size="64" font-weight="700" fill="url(#yakgoText)">
    YakGo
  </text>
</svg>
